<?xml version="1.0" encoding="UTF-8"?>
<svg version="1.1" xmlns="http://www.w3.org/2000/svg" width="612" height="408">
<path d="M0 0 C3.74715699 5.20438471 4.81073912 8.61542941 4 15 C1.76033201 19.39638531 -0.50667114 21.92615591 -5 24 C-5.99 24 -6.98 24 -8 24 C-8.04898438 24.65226562 -8.09796875 25.30453125 -8.1484375 25.9765625 C-8.78220087 33.38503775 -8.78220087 33.38503775 -10.0625 37 C-11.41396337 41.32468278 -11.15991085 45.5047283 -11 50 C-10.34 50 -9.68 50 -9 50 C-7.78022671 52.43954658 -7.79846187 54.15305849 -7.75 56.875 C-7.72421875 57.73867187 -7.6984375 58.60234375 -7.671875 59.4921875 C-8.06119571 62.4677101 -9.12935132 63.712015 -11 66 C-11.13076443 70.70751936 -8.10177572 73.75475599 -5.27734375 77.23046875 C-4 79 -4 79 -4 81 C-2.741875 81.04125 -1.48375 81.0825 -0.1875 81.125 C2.015625 81.40234375 2.015625 81.40234375 4 82 C6.46021423 85.20573369 7.0180209 87.09895476 6.9375 91.125 C5.82305517 94.5426308 4.89203973 95.86902335 2 98 C-0.32108669 98.70812814 -2.65377147 99.38024152 -5 100 C-5.33 100.66 -5.66 101.32 -6 102 C-6.66 102 -7.32 102 -8 102 C-10.56780813 106.79324185 -11.11529245 110.31534575 -10.9375 115.8046875 C-11 118 -11 118 -11.67578125 120.91015625 C-12.0806643 124.76874048 -11.18024375 126.28170643 -9.1875 129.5625 C-7.14317519 132.98589428 -5.38770984 136.2565681 -4 140 C-2.948125 139.896875 -1.89625 139.79375 -0.8125 139.6875 C3 140 3 140 5.9375 141.8125 C8.94622342 146.46234528 9.12208044 150.61562838 8 156 C6.28891999 158.90572497 5.1687258 159.35905271 2 161 C-2.63572261 162.09454562 -5.32119315 161.39494217 -9.4375 159 C-12.82247883 155.03709795 -13 153.16431564 -13 148 C-12 145.75 -12 145.75 -11 144 C-11.92509206 137.83746367 -15.3176878 131.9075179 -19 127 C-21.69222906 125.32073338 -23.21109288 124.98712584 -26.3671875 125.0546875 C-33.62098681 127.65916737 -38.33551732 135.56653523 -42 142 C-41.34 142.99 -40.68 143.98 -40 145 C-39.54028216 149.96495273 -39.84934157 153.06167696 -43 157 C-46.00705729 159.33882234 -49.278524 159.43380699 -53.03125 159.30078125 C-56.44366629 158.77943987 -57.85165455 157.66915647 -60 155 C-61.15376152 150.93147254 -61.24712579 147.26308739 -60.4375 143.125 C-57.96184186 139.46533144 -54.42253546 138.32658208 -50.2265625 137.36328125 C-45.75281833 135.47304309 -43.28211461 132.48211058 -40.125 128.875 C-39.53203125 128.21628906 -38.9390625 127.55757812 -38.328125 126.87890625 C-36.87509252 125.26182171 -35.43610743 123.63213396 -34 122 C-35.30596651 118.08210048 -36.74791017 117.72878657 -40.3125 115.75 C-45.74900575 112.70373812 -51.08991038 109.53641234 -56.40625 106.28515625 C-59.97092441 104.5189245 -62.27206542 104.75735514 -66 106 C-70.25160217 106.40109454 -72.5006973 106.26378256 -76.3125 104.25 C-79.39200706 101.67180804 -80.7148092 99.82389464 -81.3359375 95.8515625 C-81.40465602 91.93460706 -81.09865188 89.24662971 -79.625 85.5625 C-75.93129895 81.95674422 -72.0824113 81.27999929 -67 81 C-66.01 81.33 -65.02 81.66 -64 82 C-63.855625 81.360625 -63.71125 80.72125 -63.5625 80.0625 C-63 78 -63 78 -62 77 C-62.54793634 71.01328809 -63.69009101 65.1878427 -64.9375 59.3125 C-65.10701172 58.48427734 -65.27652344 57.65605469 -65.45117188 56.80273438 C-66.66401101 50.71177496 -66.66401101 50.71177496 -69 45 C-71.31979381 43.96898053 -73.65429915 42.97063483 -76 42 C-78.66903405 39.74158657 -79.7778115 38.13799155 -80.44921875 34.69921875 C-80.78374909 29.8002078 -80.33064216 26.74812854 -77.125 22.9375 C-74.15980793 19.89352263 -72.06714162 18.80415779 -67.8125 18.5625 C-63.19634142 18.63695417 -60.67425983 19.88170406 -57.375 23.06640625 C-55.00738369 26.39586668 -54.43558916 29.99969143 -54 34 C-47.70643852 31.59363826 -41.88763238 28.42685038 -36.0625 25.0625 C-34.88671875 24.38671875 -33.7109375 23.7109375 -32.53515625 23.03515625 C-31.96039551 22.70402832 -31.38563477 22.37290039 -30.79345703 22.03173828 C-27.86616499 20.34772846 -24.93284941 18.67430867 -22 17 C-22.04640625 16.35933594 -22.0928125 15.71867187 -22.140625 15.05859375 C-22.40402519 8.74639628 -21.89702103 5.05559485 -18 0 C-12.93477061 -3.32857931 -5.09590526 -3.22633834 0 0 Z M-24 25 C-24.61746094 25.33990967 -25.23492187 25.67981934 -25.87109375 26.0300293 C-27.89989359 27.15437286 -29.91949728 28.29390149 -31.9375 29.4375 C-32.61490234 29.81970703 -33.29230469 30.20191406 -33.99023438 30.59570312 C-38.3351216 33.04933551 -42.66936273 35.52131713 -47 38 C-44.12093412 41.12971397 -41.31398231 43.13739079 -37.5625 45.125 C-36.63566406 45.62257813 -35.70882812 46.12015625 -34.75390625 46.6328125 C-32.18819221 47.90657124 -29.72613205 49.1162282 -27 50 C-24.94009522 48.70532323 -24.94009522 48.70532323 -23 47 C-21.3438119 46.61799233 -19.67669612 46.27853011 -18 46 C-17.80664062 45.0821875 -17.61328125 44.164375 -17.4140625 43.21875 C-16.04821603 36.7816914 -14.65591728 30.3689126 -13 24 C-17.73632429 21.35323054 -19.42031411 22.47550884 -24 25 Z M-62 43 C-59.04905962 58.63257331 -59.04905962 58.63257331 -55 74 C-51.23792817 74.56030857 -49.10593059 74.71052528 -45.84765625 72.6171875 C-44.33726994 71.39082814 -42.84020179 70.14792045 -41.35546875 68.890625 C-37.84865635 66.07587011 -33.98930938 64.04652514 -30 62 C-30 59.69 -30 57.38 -30 55 C-35.92185395 51.66222777 -41.88880574 48.40820547 -47.875 45.1875 C-48.62450928 44.77830322 -49.37401855 44.36910645 -50.14624023 43.94750977 C-51.21467163 43.37601196 -51.21467163 43.37601196 -52.3046875 42.79296875 C-52.94390137 42.4477417 -53.58311523 42.10251465 -54.24169922 41.74682617 C-57.67621044 40.28804114 -58.93624741 40.95749827 -62 43 Z M-40.41992188 74.82128906 C-41.87219444 75.90465926 -43.3951419 76.8915479 -44.921875 77.8671875 C-47.29942063 79.92650519 -47.29942063 79.92650519 -47.7109375 83.37890625 C-46.73988704 88.32486106 -44.51316943 89.97215559 -40.625 92.9375 C-40.02171875 93.43056641 -39.4184375 93.92363281 -38.796875 94.43164062 C-35.76972231 97.11547604 -35.76972231 97.11547604 -32 98 C-31.67 98.99 -31.34 99.98 -31 101 C-28.59357323 103.10562342 -26.89662132 104.0135169 -23.66796875 103.96484375 C-21.42678825 103.71425506 -19.21882943 103.40122624 -17 103 C-17 102.34 -17 101.68 -17 101 C-16.401875 100.7525 -15.80375 100.505 -15.1875 100.25 C-12.48309418 98.70462524 -11.43257762 97.79352635 -10 95 C-9.84048776 92.68287479 -9.87486067 90.44025418 -9.9921875 88.12109375 C-10 86 -10 86 -9 83 C-10.3272714 80.55227513 -10.3272714 80.55227513 -12.25 78.0625 C-12.87390625 77.20785156 -13.4978125 76.35320312 -14.140625 75.47265625 C-14.75421875 74.65667969 -15.3678125 73.84070313 -16 73 C-16.49371094 72.27296875 -16.98742187 71.5459375 -17.49609375 70.796875 C-19.77732535 68.07124763 -21.75330087 67.39446994 -25.19140625 66.72265625 C-30.95205596 67.29151039 -35.89331671 71.39827772 -40.41992188 74.82128906 Z M-56 92 C-56.65772428 95.02934491 -56.65772428 95.02934491 -57 98 C-45.39810983 106.8064213 -45.39810983 106.8064213 -32 112 C-31.59208353 109.18418346 -31.59208353 109.18418346 -32 106 C-34.07857561 103.55289901 -34.07857561 103.55289901 -36.875 101.625 C-37.77992188 100.93664062 -38.68484375 100.24828125 -39.6171875 99.5390625 C-41.8072316 97.81914469 -41.8072316 97.81914469 -44 98 C-44.33 97.01 -44.66 96.02 -45 95 C-48.53900825 91.65228949 -51.13391392 89.56695696 -56 92 Z " fill="#1AA1F7" transform="translate(185,122)"/>
<path d="M0 0 C3.10579494 0.02279401 6.20790484 0.10007819 9.3125 0.1875 C10.19357422 0.19330078 11.07464844 0.19910156 11.98242188 0.20507812 C14.4153451 0.28833405 16.63244176 0.4306272 19 1 C20.88671875 3.203125 20.88671875 3.203125 22 6 C23.15986901 7.85842649 24.3267134 9.71251522 25.5 11.5625 C26.0878125 12.49191406 26.675625 13.42132813 27.28125 14.37890625 C29.50626584 17.78958439 29.50626584 17.78958439 32 21 C32.66 21 33.32 21 34 21 C34.09667969 20.45214844 34.19335938 19.90429688 34.29296875 19.33984375 C35.18719241 16.38050689 36.63283686 14.15572725 38.3125 11.5625 C38.90675781 10.63566406 39.50101562 9.70882812 40.11328125 8.75390625 C40.73589844 7.84511719 41.35851562 6.93632812 42 6 C42.53496094 5.06671875 43.06992187 4.1334375 43.62109375 3.171875 C46.80103406 0.26867827 48.91752314 0.48062425 53.10546875 0.56054688 C54.41451172 0.62338867 54.41451172 0.62338867 55.75 0.6875 C57.08224609 0.72133789 57.08224609 0.72133789 58.44140625 0.75585938 C60.62932812 0.81467448 62.81379671 0.89678732 65 1 C64.39953514 3.85719565 63.55550192 6.00583396 61.99609375 8.46875 C61.58875 9.11674561 61.18140625 9.76474121 60.76171875 10.43237305 C60.32472656 11.11468994 59.88773437 11.79700684 59.4375 12.5 C58.99148438 13.20616455 58.54546875 13.9123291 58.0859375 14.63989258 C54.69525718 19.98371586 51.18894734 25.24060294 47.59375 30.44921875 C45.29598106 34.01706994 45.29598106 34.01706994 44 38 C45.17717195 40.46836317 46.30389383 42.36960575 47.875 44.5625 C48.49604614 45.47515625 48.49604614 45.47515625 49.12963867 46.40625 C49.98684011 47.66402355 50.85143095 48.91679118 51.72314453 50.16455078 C53.63432499 52.91182701 55.46819797 55.707399 57.3125 58.5 C59.2597587 61.40659999 61.21120283 64.29886495 63.23046875 67.15625 C65 70 65 70 65 73 C48.25603371 74.67102083 48.25603371 74.67102083 43.16796875 70.90234375 C41.11839633 68.0280913 39.5411598 65.17391308 38 62 C36.8458448 60.09652399 35.68004645 58.20003425 34.5 56.3125 C33.66125239 54.87815236 32.8257219 53.44188559 32 52 C31.59007812 52.6496875 31.18015625 53.299375 30.7578125 53.96875 C30.21898437 54.8040625 29.68015625 55.639375 29.125 56.5 C28.59132813 57.3353125 28.05765625 58.170625 27.5078125 59.03125 C26.76144531 60.00578125 26.76144531 60.00578125 26 61 C25.34 61 24.68 61 24 61 C23.7525 61.86625 23.505 62.7325 23.25 63.625 C21.83353324 67.44946026 20.74497467 69.95002814 18 73 C14.72601386 73.74905524 11.58667703 73.56721625 8.25 73.375 C7.36183594 73.34792969 6.47367187 73.32085937 5.55859375 73.29296875 C3.36991605 73.22236624 1.18620432 73.12385527 -1 73 C-0.43080664 69.12537049 0.65753368 66.56854401 2.8125 63.3125 C3.73869141 61.89904297 3.73869141 61.89904297 4.68359375 60.45703125 C5.45423086 59.30368496 6.22654859 58.15146087 7 57 C7.49129395 56.2682959 7.98258789 55.5365918 8.48876953 54.78271484 C9.01970215 53.99203613 9.55063477 53.20135742 10.09765625 52.38671875 C10.63737061 51.58129639 11.17708496 50.77587402 11.7331543 49.94604492 C12.81776753 48.3301728 13.90640341 46.71699269 14.99926758 45.10668945 C15.50224365 44.35991943 16.00521973 43.61314941 16.5234375 42.84375 C16.97638184 42.17537109 17.42932617 41.50699219 17.89599609 40.81835938 C19.1614088 38.88583752 19.1614088 38.88583752 20 36 C18.6873247 33.58799618 17.34502476 31.38965257 15.8125 29.125 C15.41224609 28.51269531 15.01199219 27.90039062 14.59960938 27.26953125 C12.78449979 24.52186132 10.92587467 21.9078844 8.859375 19.33984375 C7.08962017 17.11277833 5.76069221 14.94850833 4.4375 12.4375 C3.17802371 10.05481863 2.02994885 8.0354065 0.28515625 5.97265625 C-1 4 -1 4 -0.58032227 1.87670898 C-0.38881592 1.25739502 -0.19730957 0.63808105 0 0 Z " fill="#1AA2F8" transform="translate(448,167)"/>
<path d="M0 0 C15.51 0 31.02 0 47 0 C47 4.62 47 9.24 47 14 C36.77 14 26.54 14 16 14 C16 18.95 16 23.9 16 29 C25.57 29 35.14 29 45 29 C45 33.29 45 37.58 45 42 C35.43 42 25.86 42 16 42 C16 46.95 16 51.9 16 57 C25.9 57 35.8 57 46 57 C46 61.62 46 66.24 46 71 C30.82 71 15.64 71 0 71 C0 47.57 0 24.14 0 0 Z " fill="#EBEEF0" transform="translate(206,169)"/>
<path d="M0 0 C0.99 0.66 1.98 1.32 3 2 C3 2.66 3 3.32 3 4 C3.99 4.33 4.98 4.66 6 5 C11.45248003 13.09610671 13.00423107 21.24426371 11.5703125 30.890625 C9.73294117 39.91869645 6.04478364 44.84506876 -1.125 50.4375 C-8.51943411 54.45621419 -18.92651564 54.19672224 -26.875 51.875 C-34.2148755 48.99292045 -38.68451522 44.0135255 -42 37 C-44.35851783 28.03763225 -44.4816233 16.19055293 -40 8 C-37.625 5.25 -37.625 5.25 -35 3 C-34.2575 2.29875 -33.515 1.5975 -32.75 0.875 C-22.4534551 -6.14537152 -10.79969142 -5.52073778 0 0 Z M-21.25 10.25 C-25.28639757 14.28639757 -26.35484973 18.3938666 -27 24 C-26.77494354 28.82848403 -25.57367306 32.75288465 -23.5625 37.125 C-19.94975321 39.76847326 -16.9663399 39.6934292 -12.5703125 39.48828125 C-9.77548916 39.17286402 -9.77548916 39.17286402 -7.375 36.8125 C-4.28993089 30.50213137 -4.39333549 24.03332256 -5.75 17.25 C-7.09119428 13.76289487 -7.95179243 12.1419837 -11 10 C-15.11190544 8.78165765 -17.23509752 8.70580674 -21.25 10.25 Z " fill="#E9ECED" transform="translate(351,188)"/>
<path d="M0 0 C5.28 0 10.56 0 16 0 C16.01417969 2.46855469 16.02835937 4.93710938 16.04296875 7.48046875 C16.07361228 9.88010184 16.11269466 12.27946003 16.15258789 14.67895508 C16.17573666 16.34226712 16.19015631 18.0057251 16.19555664 19.66918945 C16.2048698 22.06553751 16.24590551 24.45960059 16.29296875 26.85546875 C16.2890361 27.5952446 16.28510345 28.33502045 16.28105164 29.09721375 C16.3912607 33.02657244 16.8913152 34.85907498 19.31762695 38.00512695 C21.92780931 40.35099056 21.92780931 40.35099056 25.625 40.0625 C29.43894848 38.86181252 30.13881043 38.4327614 32 35 C32.3245487 32.24747515 32.48808803 29.70799355 32.51171875 26.953125 C32.52966995 26.18192322 32.54762115 25.41072144 32.56611633 24.6161499 C32.62015769 22.16082168 32.6540942 19.70568714 32.6875 17.25 C32.72067864 15.58200434 32.75516882 13.91403421 32.79101562 12.24609375 C32.87834324 8.16403562 32.9384601 4.08285389 33 0 C38.28 0 43.56 0 49 0 C49 17.82 49 35.64 49 54 C43.72 54 38.44 54 33 54 C32.67 52.35 32.34 50.7 32 49 C31.2575 49.804375 30.515 50.60875 29.75 51.4375 C25.60486431 55.3000128 21.79561541 55.29593274 16.30859375 55.21484375 C10.11172315 54.63814682 5.89394507 51.67273408 2 47 C-0.58391835 42.26805226 -0.25592103 37.56679736 -0.1953125 32.32421875 C-0.1924826 31.3990596 -0.18965271 30.47390045 -0.18673706 29.52070618 C-0.17557392 26.57617058 -0.15047637 23.63194312 -0.125 20.6875 C-0.11496521 18.68685336 -0.10584023 16.68620194 -0.09765625 14.68554688 C-0.07564722 9.7902465 -0.04114391 4.89517543 0 0 Z " fill="#EAEEF1" transform="translate(390,186)"/>
<path d="M0 0 C5.28 0 10.56 0 16 0 C19.33664017 6.67328033 21.35344994 13.42955621 23.2487793 20.61474609 C24.28535322 24.52845288 25.37682863 28.27712988 27 32 C30.08556623 26.56571918 31.51429643 20.90151107 33.0625 14.875 C33.57025803 12.9130332 34.08183333 10.9520494 34.59765625 8.9921875 C34.81945557 8.12964355 35.04125488 7.26709961 35.26977539 6.37841797 C36 4 36 4 38 0 C43.61 0 49.22 0 55 0 C54.38125 1.8253125 54.38125 1.8253125 53.75 3.6875 C52.45360333 7.56451726 51.24530806 11.46191562 50.0625 15.375 C46.04075282 28.47956945 40.89541255 41.20301136 36 54 C30.39 54 24.78 54 19 54 C16.09321117 47.85102362 13.72907129 41.58160455 11.50463867 35.16113281 C10.00274517 30.83035281 8.46253149 26.51755101 6.87109375 22.21875 C6.50918945 21.23865967 6.14728516 20.25856934 5.77441406 19.2487793 C5.06298276 17.32686008 4.34763794 15.40638389 3.62792969 13.48754883 C3.13728027 12.15759888 3.13728027 12.15759888 2.63671875 10.80078125 C2.34498779 10.01872314 2.05325684 9.23666504 1.75268555 8.4309082 C1 6 1 6 0 0 Z " fill="#EBEDEE" transform="translate(255,186)"/>
<path d="M0 0 C4.95 0 9.9 0 15 0 C15 23.76 15 47.52 15 72 C10.05 72 5.1 72 0 72 C0 48.24 0 24.48 0 0 Z " fill="#EEF0F1" transform="translate(368,168)"/>
<path d="M0 0 C0.69480469 0.5775 1.38960937 1.155 2.10546875 1.75 C9.40761464 7.42616199 17.64257639 12.06709477 26 16 C23.525 18.475 23.525 18.475 21 21 C16.73230772 19.43706905 12.86104196 17.33008257 8.9375 15.0625 C8.32583984 14.71509766 7.71417969 14.36769531 7.08398438 14.00976562 C4.50508053 12.52933542 2.06775359 11.05415598 -0.2578125 9.1953125 C-0.83273438 8.80085937 -1.40765625 8.40640625 -2 8 C-4.89992799 8.79950593 -4.89992799 8.79950593 -8 10 C-13.72751505 10.61366233 -16.47921122 9.52842051 -21 6 C-20 4 -20 4 -17 3 C-17 3.99 -17 4.98 -17 6 C-12.545 6.99 -12.545 6.99 -8 8 C-8 7.34 -8 6.68 -8 6 C-5.69 6 -3.38 6 -1 6 C-0.67 4.02 -0.34 2.04 0 0 Z " fill="#1A98EB" transform="translate(127,218)"/>
<path d="M0 0 C3.96 0 7.92 0 12 0 C13.95470812 3.28390965 15.02657584 5.32231619 14.875 9.1875 C13.94266713 12.18428421 13.45441818 13.13655886 11 15 C8.30078125 15.51171875 8.30078125 15.51171875 5.3125 15.6875 C4.31863281 15.75324219 3.32476562 15.81898438 2.30078125 15.88671875 C1.54152344 15.92410156 0.78226563 15.96148437 0 16 C-0.95792977 12.36147686 -1.49800802 8.72908331 -2 5 C-1.34 5 -0.68 5 0 5 C0 3.35 0 1.7 0 0 Z " fill="#1BA4FB" transform="translate(177,204)"/>
<path d="M0 0 C2 3 2 3 2 5 C2.66 5.33 3.32 5.66 4 6 C3.31292969 6.73605469 2.62585938 7.47210938 1.91796875 8.23046875 C1.00758499 9.21593571 0.09744146 10.20162462 -0.8125 11.1875 C-1.70582031 12.15042969 -2.59914062 13.11335937 -3.51953125 14.10546875 C-5.69702078 16.64644472 -7.39192474 19.07768383 -9 22 C-8.34 22.99 -7.68 23.98 -7 25 C-6.92094936 27.33199388 -6.91201231 29.66832622 -7 32 C-7.33 32 -7.66 32 -8 32 C-8.33 29.36 -8.66 26.72 -9 24 C-9.99 23.67 -10.98 23.34 -12 23 C-12.66 21.68 -13.32 20.36 -14 19 C-17.3 19.66 -20.6 20.32 -24 21 C-23.67 20.34 -23.34 19.68 -23 19 C-21.64214417 18.54999172 -20.26218199 18.16569985 -18.875 17.81640625 C-13.46811166 16.11229386 -10.61285727 13.17549367 -7 8.9375 C-6.42894531 8.30005859 -5.85789063 7.66261719 -5.26953125 7.00585938 C-2.309207 3.72861809 -2.309207 3.72861809 0 0 Z " fill="#1A96E7" transform="translate(152,242)"/>
<path d="M0 0 C0.33 0.66 0.66 1.32 1 2 C1.66 1.67 2.32 1.34 3 1 C6.55972125 1 7.71692894 1.86599575 10.6875 3.75 C15.02744651 6.4393648 19.40141834 8.78586809 24 11 C23.34 11.66 22.68 12.32 22 13 C22 14.32 22 15.64 22 17 C17.23247186 15.25253949 12.84354898 12.8867847 8.375 10.5 C7.611875 10.09652344 6.84875 9.69304687 6.0625 9.27734375 C2.93818701 7.61652474 -0.05155431 5.96563046 -3 4 C-2.34 3.67 -1.68 3.34 -1 3 C-0.67 2.01 -0.34 1.02 0 0 Z " fill="#189BEE" transform="translate(133,160)"/>
<path d="M0 0 C0.99 0.33 1.98 0.66 3 1 C1.68 3.31 0.36 5.62 -1 8 C-1.66 8 -2.32 8 -3 8 C-3.2475 8.86625 -3.495 9.7325 -3.75 10.625 C-5.16646676 14.44946026 -6.25502533 16.95002814 -9 20 C-12.27398614 20.74905524 -15.41332297 20.56721625 -18.75 20.375 C-20.08224609 20.33439453 -20.08224609 20.33439453 -21.44140625 20.29296875 C-23.63008395 20.22236624 -25.81379568 20.12385527 -28 20 C-27.44010697 16.00987629 -26.24330232 13.4744948 -23.9375 10.1875 C-23.11572266 9.00220703 -23.11572266 9.00220703 -22.27734375 7.79296875 C-21.64505859 6.90544922 -21.64505859 6.90544922 -21 6 C-21 8.95274099 -21.43891831 10.49058403 -22.5 13.1875 C-22.7784375 13.90292969 -23.056875 14.61835938 -23.34375 15.35546875 C-23.66859375 16.16951172 -23.66859375 16.16951172 -24 17 C-24.66 17 -25.32 17 -26 17 C-26 17.66 -26 18.32 -26 19 C-20.72 18.67 -15.44 18.34 -10 18 C-10 16.68 -10 15.36 -10 14 C-9.01 13.67 -8.02 13.34 -7 13 C-6.896875 12.236875 -6.79375 11.47375 -6.6875 10.6875 C-5.9309017 7.72988846 -5.18227175 7.00769001 -3 5 C-2.30251417 3.68252676 -1.63040043 2.35085807 -1 1 C-0.67 0.67 -0.34 0.34 0 0 Z " fill="#178DE0" transform="translate(475,220)"/>
<path d="M0 0 C3.77682693 3.3792662 6.03316886 5.95099292 7 11 C6.35330586 12.34313399 5.68256903 13.67473711 5 15 C4.41501792 17.07158792 3.87563676 19.15642808 3.375 21.25 C2.98441406 22.86648438 2.98441406 22.86648438 2.5859375 24.515625 C2.39257812 25.33546875 2.19921875 26.1553125 2 27 C1.34 27 0.68 27 0 27 C0.89894737 19.29473684 0.89894737 19.29473684 1.75 16.8125 C2.14185437 13.97155583 0.49425275 12.37973587 -1 10 C-1.72166191 7.68308546 -2.40059529 5.35151077 -3 3 C-2.34 3 -1.68 3 -1 3 C-0.67 2.01 -0.34 1.02 0 0 Z " fill="#1C9BED" transform="translate(172,248)"/>
<path d="M0 0 C0.99 0.495 0.99 0.495 2 1 C2 1.66 2 2.32 2 3 C3.051875 2.896875 4.10375 2.79375 5.1875 2.6875 C9 3 9 3 11.9375 4.8125 C14.94622342 9.46234528 15.12208044 13.61562838 14 19 C12.28891999 21.90572497 11.1687258 22.35905271 8 24 C5.18879355 24.37281232 2.85669621 24.24626691 0 24 C0 23.67 0 23.34 0 23 C2.31 23 4.62 23 7 23 C7.33 21.35 7.66 19.7 8 18 C9.32 17.67 10.64 17.34 12 17 C11.67 13.7 11.34 10.4 11 7 C10.01 7.495 10.01 7.495 9 8 C9 7.34 9 6.68 9 6 C6.36 5.67 3.72 5.34 1 5 C0.67 3.35 0.34 1.7 0 0 Z " fill="#1B84C9" transform="translate(179,259)"/>
<path d="M0 0 C1.98 1.65 3.96 3.3 6 5 C5.01 5.66 4.02 6.32 3 7 C3.33 8.32 3.66 9.64 4 11 C2.88625 10.505 2.88625 10.505 1.75 10 C-1.90136416 8.67223121 -4.32839385 8.77613128 -8 10 C-13.71717911 10.53935652 -16.48784435 9.52168246 -21 6 C-20 4 -20 4 -17 3 C-17 3.99 -17 4.98 -17 6 C-12.545 6.99 -12.545 6.99 -8 8 C-8 7.34 -8 6.68 -8 6 C-5.69 6 -3.38 6 -1 6 C-0.67 4.02 -0.34 2.04 0 0 Z " fill="#178BD6" transform="translate(127,218)"/>
<path d="M0 0 C1.74325447 2.6148817 2.41587957 4.0053433 3.125 6.9375 C3.29257813 7.60652344 3.46015625 8.27554688 3.6328125 8.96484375 C4 11 4 11 4 15 C3.34 15 2.68 15 2 15 C1.67 15.66 1.34 16.32 1 17 C0.67 17.33 0.34 17.66 0 18 C-0.99 18 -1.98 18 -3 18 C-3.06058594 17.43152344 -3.12117188 16.86304688 -3.18359375 16.27734375 C-3.70176573 11.50218963 -4.29243859 6.7507695 -5 2 C-3.02 2.99 -3.02 2.99 -1 4 C-1 4.66 -1 5.32 -1 6 C-0.34 6 0.32 6 1 6 C0.67 4.02 0.34 2.04 0 0 Z " fill="#1693E6" transform="translate(126,182)"/>
<path d="M0 0 C-0.33 0.66 -0.66 1.32 -1 2 C-1.33 1.67 -1.66 1.34 -2 1 C-6.13300686 0.38510821 -10.2730691 -0.02515022 -13.9609375 2.1640625 C-17.17211642 5.21859854 -18.38503993 7.57228751 -19 12 C-19.99 12.66 -20.98 13.32 -22 14 C-22.49935505 7.88290059 -21.52168748 4.85421787 -18 0 C-12.76993662 -3.43689879 -5.30108569 -3.02919183 0 0 Z " fill="#1D8DE1" transform="translate(185,122)"/>
<path d="M0 0 C3.27070165 0.60059344 5.21607057 1.67382025 7.75 3.8125 C8.36359375 4.31394531 8.9771875 4.81539062 9.609375 5.33203125 C11 7 11 7 11 11 C6.87203885 10.7618484 4.65367367 10.60339108 1.5625 7.75 C-0.10291199 4.8188749 -0.37775893 3.3053906 0 0 Z " fill="#1B98EF" transform="translate(145,216)"/>
<path d="M0 0 C1.73504856 0.03311161 3.46975671 0.09256933 5.203125 0.17578125 C6.53537109 0.20961914 6.53537109 0.20961914 7.89453125 0.24414062 C10.08245312 0.30295573 12.26692171 0.38506857 14.453125 0.48828125 C13.62098781 4.47560528 11.8497097 7.19297729 9.453125 10.48828125 C9.123125 10.48828125 8.793125 10.48828125 8.453125 10.48828125 C8.783125 7.51828125 9.113125 4.54828125 9.453125 1.48828125 C7.51489904 1.52133627 5.57726832 1.5907803 3.640625 1.67578125 C2.56167969 1.71058594 1.48273438 1.74539062 0.37109375 1.78125 C-2.7632194 2.21049665 -2.7632194 2.21049665 -4.43359375 5.0390625 C-4.80097656 5.84730469 -5.16835938 6.65554687 -5.546875 7.48828125 C-6.536875 6.82828125 -7.526875 6.16828125 -8.546875 5.48828125 C-6.25431042 1.39901578 -4.57220703 0.14207941 0 0 Z " fill="#2096DF" transform="translate(498.546875,167.51171875)"/>
<path d="M0 0 C0.33 0.66 0.66 1.32 1 2 C1.66 1.67 2.32 1.34 3 1 C7.24645065 1 9.38524772 2.81750806 13 5 C12.360625 5.103125 11.72125 5.20625 11.0625 5.3125 C10.381875 5.539375 9.70125 5.76625 9 6 C8.67 6.99 8.34 7.98 8 9 C4.08406554 8.21681311 0.63593365 6.60820142 -3 5 C-2.01 3.35 -1.02 1.7 0 0 Z " fill="#199AF1" transform="translate(133,160)"/>
<path d="M0 0 C0.33 0 0.66 0 1 0 C1.28570579 4.38082212 0.90391768 7.64029393 -0.5 11.8125 C-2.18419139 16.9599582 -2.30865855 21.62705495 -2 27 C-1.34 27 -0.68 27 0 27 C-0.33 27.66 -0.66 28.32 -1 29 C-2.45703125 27.98046875 -2.45703125 27.98046875 -4 26 C-4.37644848 23.37060795 -4.60133087 20.94927528 -4.6875 18.3125 C-4.72166016 17.61060547 -4.75582031 16.90871094 -4.79101562 16.18554688 C-4.87329947 14.45758613 -4.9383324 12.72881928 -5 11 C-4.01 10.67 -3.02 10.34 -2 10 C-1.93941406 9.36191406 -1.87882813 8.72382813 -1.81640625 8.06640625 C-1.73261719 7.24011719 -1.64882812 6.41382813 -1.5625 5.5625 C-1.48128906 4.73878906 -1.40007812 3.91507813 -1.31640625 3.06640625 C-1 1 -1 1 0 0 Z " fill="#178BE4" transform="translate(176,145)"/>
<path d="M0 0 C0.66 0.33 1.32 0.66 2 1 C0.515 3.475 0.515 3.475 -1 6 C-0.01 6.66 0.98 7.32 2 8 C-3.75 12 -3.75 12 -6 12 C-6.33 10.68 -6.66 9.36 -7 8 C-7.33 8.33 -7.66 8.66 -8 9 C-9.99958364 9.04080783 -12.00045254 9.04254356 -14 9 C-14 8.67 -14 8.34 -14 8 C-12.7625 7.690625 -12.7625 7.690625 -11.5 7.375 C-7.04064403 5.62311015 -3.70446154 2.98989535 0 0 Z " fill="#138BE4" transform="translate(146,188)"/>
<path d="M0 0 C0.99 0.66 1.98 1.32 3 2 C2.979375 2.928125 2.95875 3.85625 2.9375 4.8125 C3.01680659 8.85713597 4.49458965 9.94653113 7 13 C7.25 15.8125 7.25 15.8125 7 18 C3.76612108 15.04732794 1.77754751 12.12077252 -0.25 8.25 C-0.77078125 7.26515625 -1.2915625 6.2803125 -1.828125 5.265625 C-2.21484375 4.51796875 -2.6015625 3.7703125 -3 3 C-2.01 2.67 -1.02 2.34 0 2 C0 1.34 0 0.68 0 0 Z " fill="#189BEC" transform="translate(484,217)"/>
<path d="M0 0 C0.99 0.33 1.98 0.66 3 1 C4.125 4.4375 4.125 4.4375 5 8 C5.33 8.66 5.66 9.32 6 10 C6.04022391 12.3329866 6.04320247 14.66706666 6 17 C5.67 17 5.34 17 5 17 C4.67 14.36 4.34 11.72 4 9 C3.01 8.67 2.02 8.34 1 8 C0.34 6.68 -0.32 5.36 -1 4 C-4.3 4.66 -7.6 5.32 -11 6 C-10 4 -10 4 -7.96875 3.18359375 C-7.1540625 2.93738281 -6.339375 2.69117188 -5.5 2.4375 C-2.48668507 1.67451663 -2.48668507 1.67451663 0 0 Z " fill="#138CD6" transform="translate(139,257)"/>
<path d="M0 0 C0.66 0 1.32 0 2 0 C3.94204489 3.26263542 5.0127564 5.34942348 4.9375 9.1875 C4 12 4 12 0 15 C0 10.05 0 5.1 0 0 Z " fill="#1D98E3" transform="translate(187,204)"/>
<path d="M0 0 C0.33 0.66 0.66 1.32 1 2 C1.66 2 2.32 2 3 2 C3.33 1.34 3.66 0.68 4 0 C4.66 3.96 5.32 7.92 6 12 C4.68 12 3.36 12 2 12 C-0.60018816 8.09971775 -0.15085514 4.52565431 0 0 Z " fill="#20A4F8" transform="translate(121,176)"/>
<path d="M0 0 C0 2.95274099 -0.43891831 4.49058403 -1.5 7.1875 C-1.7784375 7.90292969 -2.056875 8.61835938 -2.34375 9.35546875 C-2.5603125 9.89816406 -2.776875 10.44085938 -3 11 C-3.66 11 -4.32 11 -5 11 C-5 11.66 -5 12.32 -5 13 C0.28 13 5.56 13 11 13 C11 13.33 11 13.66 11 14 C5.06 14 -0.88 14 -7 14 C-6.09353725 9.46768624 -5.45887001 7.78179342 -2.9375 4.1875 C-2.38964844 3.39730469 -1.84179688 2.60710937 -1.27734375 1.79296875 C-0.64505859 0.90544922 -0.64505859 0.90544922 0 0 Z " fill="#2191D4" transform="translate(454,226)"/>
<path d="M0 0 C1.125 1.75 1.125 1.75 2 4 C1.352585 5.34278667 0.68135804 6.67411409 0 8 C-0.58498208 10.07158792 -1.12436324 12.15642808 -1.625 14.25 C-1.88539063 15.32765625 -2.14578125 16.4053125 -2.4140625 17.515625 C-2.60742188 18.33546875 -2.80078125 19.1553125 -3 20 C-3.66 20 -4.32 20 -5 20 C-4.11976048 12.45508982 -4.11976048 12.45508982 -3.375 9.625 C-2.79189619 7.88547307 -2.79189619 7.88547307 -4 6 C-3.34 6 -2.68 6 -2 6 C-1.34 4.02 -0.68 2.04 0 0 Z " fill="#168DE4" transform="translate(177,255)"/>
<path d="M0 0 C0.99 0.66 1.98 1.32 3 2 C3 2.66 3 3.32 3 4 C4.65 4 6.3 4 8 4 C5 6 5 6 1.8125 5.625 C0.884375 5.41875 -0.04375 5.2125 -1 5 C-1 6.65 -1 8.3 -1 10 C-1.66 10 -2.32 10 -3 10 C-3 11.65 -3 13.3 -3 15 C-3.33 15 -3.66 15 -4 15 C-4.07427838 11.65747276 -4.06546953 9.1964086 -3 6 C-3.33 5.34 -3.66 4.68 -4 4 C-2.68 3.34 -1.36 2.68 0 2 C0 1.34 0 0.68 0 0 Z " fill="#1689DE" transform="translate(178,199)"/>
<path d="M0 0 C0.66 0.33 1.32 0.66 2 1 C2 4.69418201 0.71820705 6.77836178 -1 10 C-0.01 10.33 0.98 10.66 2 11 C2.33 12.65 2.66 14.3 3 16 C1.0546875 15.26953125 1.0546875 15.26953125 -1 14 C-2.38284836 9.95477117 -2.30164636 5.9853781 -1.0625 1.9375 C-0.711875 1.298125 -0.36125 0.65875 0 0 Z " fill="#1E8DD5" transform="translate(126,263)"/>
<path d="M0 0 C0.99 0 1.98 0 3 0 C4.125 6.625 4.125 6.625 3 10 C1.68 10 0.36 10 -1 10 C-1.33 10.66 -1.66 11.32 -2 12 C-1.34 8.04 -0.68 4.08 0 0 Z " fill="#189BE9" transform="translate(171,145)"/>
<path d="M0 0 C0.33 1.32 0.66 2.64 1 4 C0.39671875 3.98839844 -0.2065625 3.97679687 -0.828125 3.96484375 C-1.62734375 3.95582031 -2.4265625 3.94679687 -3.25 3.9375 C-4.03890625 3.92589844 -4.8278125 3.91429687 -5.640625 3.90234375 C-7.93924671 3.99748538 -9.83050218 4.23683594 -12 5 C-12.33 5.66 -12.66 6.32 -13 7 C-13.99 7.495 -13.99 7.495 -15 8 C-15 7.01 -15 6.02 -15 5 C-15.99 4.67 -16.98 4.34 -18 4 C-15.50907189 2.75453595 -14.58919267 3.2232422 -12 4 C-11.67 3.01 -11.34 2.02 -11 1 C-10.34 1.33 -9.68 1.66 -9 2 C-7.45976004 2.06950541 -5.91665012 2.08452357 -4.375 2.0625 C-3.55773437 2.05347656 -2.74046875 2.04445312 -1.8984375 2.03515625 C-1.27195313 2.02355469 -0.64546875 2.01195312 0 2 C0 1.34 0 0.68 0 0 Z " fill="#1589E2" transform="translate(168,223)"/>
<path d="M0 0 C2.97 0 5.94 0 9 0 C9 0.33 9 0.66 9 1 C7.2984375 1.433125 7.2984375 1.433125 5.5625 1.875 C4.386875 2.24625 3.21125 2.6175 2 3 C1.67 3.66 1.34 4.32 1 5 C0.34 5 -0.32 5 -1 5 C-1.28875 5.639375 -1.5775 6.27875 -1.875 6.9375 C-3 9 -3 9 -5 10 C-4.67 8.02 -4.34 6.04 -4 4 C-3.01 4 -2.02 4 -1 4 C-0.67 2.68 -0.34 1.36 0 0 Z " fill="#1A8BE2" transform="translate(178,219)"/>
<path d="M0 0 C2.3125 0.1875 2.3125 0.1875 5 1 C6.8125 3.5625 6.8125 3.5625 8 6 C6.02 6.33 4.04 6.66 2 7 C0.5393715 4.35261084 0 3.10551666 0 0 Z " fill="#1C9BF0" transform="translate(171,196)"/>
<path d="M0 0 C0.99 0.495 0.99 0.495 2 1 C2 1.66 2 2.32 2 3 C3.60875 2.9071875 3.60875 2.9071875 5.25 2.8125 C9.10866187 3.00543309 10.28817788 3.39665076 13 6 C12.67 6.66 12.34 7.32 12 8 C11.01 8 10.02 8 9 8 C9 7.34 9 6.68 9 6 C6.36 5.67 3.72 5.34 1 5 C0.67 3.35 0.34 1.7 0 0 Z " fill="#1783DE" transform="translate(179,259)"/>
<path d="M0 0 C1.98 1.65 3.96 3.3 6 5 C5.01 5.66 4.02 6.32 3 7 C3.33 8.32 3.66 9.64 4 11 C1.525 10.01 1.525 10.01 -1 9 C-0.67 6.03 -0.34 3.06 0 0 Z " fill="#128EE4" transform="translate(127,218)"/>
<path d="M0 0 C0.33 1.32 0.66 2.64 1 4 C-0.8125 6.5625 -0.8125 6.5625 -3 9 C-3.99 10.485 -3.99 10.485 -5 12 C-5.99 11.67 -6.98 11.34 -8 11 C-5.36 7.37 -2.72 3.74 0 0 Z " fill="#1B95E4" transform="translate(467,207)"/>
<path d="M0 0 C0.33 0 0.66 0 1 0 C1.19627391 1.58226965 1.38165538 3.16589271 1.5625 4.75 C1.66691406 5.63171875 1.77132812 6.5134375 1.87890625 7.421875 C1.99456676 9.88432451 1.73638695 11.66538064 1 14 C-1.96175123 13.38722388 -3.38058783 12.74627478 -6 11 C-4.35 11 -2.7 11 -1 11 C-0.67 7.37 -0.34 3.74 0 0 Z " fill="#1993EB" transform="translate(168,157)"/>
<path d="M0 0 C1.36860042 2.73720084 0.6395773 3.99398667 0 7 C-0.37695227 9.99551404 -0.69246577 12.9966338 -1 16 C-3.50009087 13.49990913 -3.29712739 12.5787141 -3.3125 9.125 C-3.32925781 8.26132813 -3.34601563 7.39765625 -3.36328125 6.5078125 C-2.93757021 3.56903308 -1.94053466 2.20166201 0 0 Z " fill="#1A87D6" transform="translate(108,145)"/>
<path d="M0 0 C0.66 0.33 1.32 0.66 2 1 C1.45276317 4.37462715 0.9451 6.08235 -1 9 C-3.625 9.6875 -3.625 9.6875 -6 10 C-6.33 9.34 -6.66 8.68 -7 8 C-5.02 7.34 -3.04 6.68 -1 6 C-0.67 4.02 -0.34 2.04 0 0 Z " fill="#25A5FA" transform="translate(154,229)"/>
<path d="M0 0 C3.59391114 1.33488128 6.75490696 2.96022723 10 5 C9.360625 5.103125 8.72125 5.20625 8.0625 5.3125 C7.381875 5.539375 6.70125 5.76625 6 6 C5.67 6.99 5.34 7.98 5 9 C3.68 8.67 2.36 8.34 1 8 C1.99 6.35 2.98 4.7 4 3 C3.01 3 2.02 3 1 3 C0.67 2.01 0.34 1.02 0 0 Z " fill="#0F84DD" transform="translate(136,160)"/>
<path d="M0 0 C5.28 0 10.56 0 16 0 C16 0.33 16 0.66 16 1 C14.62714844 1.03867188 14.62714844 1.03867188 13.2265625 1.078125 C11.44378906 1.16320312 11.44378906 1.16320312 9.625 1.25 C8.44164062 1.29640625 7.25828125 1.3428125 6.0390625 1.390625 C2.88708247 1.65648799 2.88708247 1.65648799 1.5859375 4.046875 C1.39257812 4.69140625 1.19921875 5.3359375 1 6 C0.67 4.02 0.34 2.04 0 0 Z " fill="#88919B" transform="translate(255,186)"/>
<path d="M0 0 C1.60031344 3.20062687 0.03173691 5.72271806 -1 9 C-1.99 8.67 -2.98 8.34 -4 8 C-3.67 6.68 -3.34 5.36 -3 4 C-3.66 3.67 -4.32 3.34 -5 3 C-3.35 2.01 -1.7 1.02 0 0 Z " fill="#25AAFB" transform="translate(138,154)"/>
<path d="M0 0 C0.99 0 1.98 0 3 0 C2.690625 0.5775 2.38125 1.155 2.0625 1.75 C0.35261116 5.37094106 -0.29222745 7.12331765 1 11 C0.01 11.495 0.01 11.495 -1 12 C-2.17353189 8.47940432 -2.20146402 5.693507 -2 2 C-1.34 1.34 -0.68 0.68 0 0 Z " fill="#1A90EB" transform="translate(492,197)"/>
<path d="M0 0 C-8.21860184 4.12671321 -8.21860184 4.12671321 -11.3125 3.625 C-11.869375 3.41875 -12.42625 3.2125 -13 3 C-9.21656826 -0.94792877 -5.07874402 -0.29300446 0 0 Z " fill="#1480CB" transform="translate(122,141)"/>
<path d="M0 0 C1.65 1.32 3.3 2.64 5 4 C4.67 4.99 4.34 5.98 4 7 C2.35 6.67 0.7 6.34 -1 6 C-0.67 4.02 -0.34 2.04 0 0 Z " fill="#1B96F1" transform="translate(137,207)"/>
<path d="M0 0 C3.3 0.33 6.6 0.66 10 1 C8 3 8 3 6.0546875 3.1953125 C4.03645833 3.13020833 2.01822917 3.06510417 0 3 C0 2.01 0 1.02 0 0 Z " fill="#1D87CF" transform="translate(130,278)"/>
<path d="M0 0 C0.66 0 1.32 0 2 0 C1.34 2.97 0.68 5.94 0 9 C-0.66 9 -1.32 9 -2 9 C-1.125 1.125 -1.125 1.125 0 0 Z " fill="#1781D4" transform="translate(174,266)"/>
<path d="M0 0 C2.91517292 1.07401108 4.77810176 1.77810176 7 4 C4 6 4 6 1 6 C0.67 4.02 0.34 2.04 0 0 Z " fill="#1795E9" transform="translate(146,231)"/>
<path d="M0 0 C2.97 0.495 2.97 0.495 6 1 C5.34 2.32 4.68 3.64 4 5 C1 4 1 4 0 3 C0 2.01 0 1.02 0 0 Z " fill="#20A7FA" transform="translate(129,224)"/>
<path d="M0 0 C1.1875 2.5625 1.1875 2.5625 2 5 C-0.31 4.01 -2.62 3.02 -5 2 C-5.33 2.66 -5.66 3.32 -6 4 C-6.33 3.01 -6.66 2.02 -7 1 C-3.375 -1.125 -3.375 -1.125 0 0 Z " fill="#1590DA" transform="translate(176,194)"/>
<path d="M0 0 C1.32 0.33 2.64 0.66 4 1 C2.35 3.64 0.7 6.28 -1 9 C-2.07349791 4.70600835 -1.79682816 3.80504787 0 0 Z " fill="#1A94E0" transform="translate(501,182)"/>
<path d="M0 0 C2.64 0 5.28 0 8 0 C5.31158141 2.25245881 3.35358125 3.88213958 0 5 C0 3.35 0 1.7 0 0 Z " fill="#1992E8" transform="translate(140,195)"/>
<path d="M0 0 C1.32 0 2.64 0 4 0 C4.33 1.32 4.66 2.64 5 4 C3.02 4 1.04 4 -1 4 C-0.67 2.68 -0.34 1.36 0 0 Z " fill="#1C9FF2" transform="translate(150,146)"/>
<path d="M0 0 C6.52307692 0.61538462 6.52307692 0.61538462 8.9375 2.5625 C9.288125 3.036875 9.63875 3.51125 10 4 C3.47692308 3.38461538 3.47692308 3.38461538 1.0625 1.4375 C0.711875 0.963125 0.36125 0.48875 0 0 Z " fill="#B0B9C1" transform="translate(319,236)"/>
<path d="M0 0 C1.65 1.65 3.3 3.3 5 5 C4.67 5.66 4.34 6.32 4 7 C2.68 6.34 1.36 5.68 0 5 C0 3.35 0 1.7 0 0 Z " fill="#24A8F9" transform="translate(145,216)"/>
<path d="M0 0 C1.04005702 3.38018531 1.08004482 6.4780279 1 10 C0.01 10 -0.98 10 -2 10 C-1.125 2.25 -1.125 2.25 0 0 Z " fill="#9DA6AB" transform="translate(292,188)"/>
<path d="M0 0 C0.33 0.99 0.66 1.98 1 3 C1.66 3.66 2.32 4.32 3 5 C1.68 5.33 0.36 5.66 -1 6 C-1.33 5.01 -1.66 4.02 -2 3 C-4.01508358 2.26676204 -4.01508358 2.26676204 -6 2 C-3 0 -3 0 0 0 Z " fill="#178ED9" transform="translate(162,141)"/>
<path d="M0 0 C1.13643966 3.40931897 0.86747764 4.00335456 -0.4375 7.1875 C-0.86869141 8.26064453 -0.86869141 8.26064453 -1.30859375 9.35546875 C-1.53675781 9.89816406 -1.76492188 10.44085938 -2 11 C-2.33 11 -2.66 11 -3 11 C-2.8864371 9.35333797 -2.75882619 7.70763918 -2.625 6.0625 C-2.55539062 5.14597656 -2.48578125 4.22945312 -2.4140625 3.28515625 C-2.27742188 2.53105469 -2.14078125 1.77695313 -2 1 C-1.34 0.67 -0.68 0.34 0 0 Z " fill="#88959B" transform="translate(297,219)"/>
<path d="M0 0 C0.66 0 1.32 0 2 0 C3.5625 2.8125 3.5625 2.8125 5 6 C4.67 6.99 4.34 7.98 4 9 C1.49701566 6.06171403 0.53069061 3.82097239 0 0 Z " fill="#1574D5" transform="translate(187,204)"/>
<path d="M0 0 C-7.42857143 3.28571429 -7.42857143 3.28571429 -11 4 C-7.9178096 0.4611888 -4.70112403 -2.35056201 0 0 Z " fill="#1C89D8" transform="translate(117,204)"/>
<path d="M0 0 C3.465 1.485 3.465 1.485 7 3 C6.67 3.99 6.34 4.98 6 6 C3.37812506 4.95125002 2.20628639 4.35068687 0.75 1.875 C0.5025 1.25625 0.255 0.6375 0 0 Z " fill="#137FC9" transform="translate(173,276)"/>
<path d="M0 0 C2.3431213 0.25561323 4.67843403 0.59270772 7 1 C7.33 1.66 7.66 2.32 8 3 C5.69 3 3.38 3 1 3 C0.67 2.01 0.34 1.02 0 0 Z " fill="#27A5F7" transform="translate(158,244)"/>
<path d="M0 0 C3.875 0.875 3.875 0.875 5 2 C5.04063832 3.66617115 5.042721 5.33388095 5 7 C2.47411298 4.63707344 1.11179163 3.33537489 0 0 Z " fill="#178BCF" transform="translate(486,228)"/>
<path d="M0 0 C0.99 1.32 1.98 2.64 3 4 C2.67 4.66 2.34 5.32 2 6 C0.35 6 -1.3 6 -3 6 C-2.01 4.02 -1.02 2.04 0 0 Z " fill="#138FE5" transform="translate(175,214)"/>
<path d="M0 0 C0.99 0 1.98 0 3 0 C3.33 1.98 3.66 3.96 4 6 C3.01 6.33 2.02 6.66 1 7 C1 5.35 1 3.7 1 2 C0.34 1.67 -0.32 1.34 -1 1 C-0.67 0.67 -0.34 0.34 0 0 Z " fill="#148AE4" transform="translate(137,153)"/>
</svg>
